<?xml version="1.0" encoding="iso-8859-1"?>
<!-- Generator: Adobe Illustrator 19.0.0, SVG Export Plug-In . SVG Version: 6.00 Build 0)  -->
<svg version="1.1" id="Capa_1" xmlns="http://www.w3.org/2000/svg" xmlns:xlink="http://www.w3.org/1999/xlink" x="0px" y="0px"
	 viewBox="0 0 468.293 468.293" style="enable-background:new 0 0 468.293 468.293;" xml:space="preserve">
<path style="fill:#FCD462;" d="M468.293,98.357H0V29.674c0-6.897,5.591-12.488,12.488-12.488h443.317
	c6.897,0,12.488,5.591,12.488,12.488V98.357z"/>
<path style="fill:#F6C358;" d="M468.293,98.357H222.357l40.595-48.207c5.932-7.044,14.671-11.11,23.88-11.11h181.46V98.357z"/>
<path style="fill:#44C4A1;" d="M455.805,451.106H12.488C5.591,451.106,0,445.515,0,438.619V98.357h468.293v340.262
	C468.293,445.515,462.702,451.106,455.805,451.106z"/>
<circle style="fill:#27A2DB;" cx="63.875" cy="57.769" r="18.732"/>
<circle style="fill:#E56353;" cx="120.07" cy="57.769" r="18.732"/>
<circle style="fill:#DC8744;" cx="176.265" cy="57.769" r="18.732"/>
<rect x="221.659" y="151.402" style="fill:#3EA69B;" width="24.976" height="246.653"/>
<g>
	<rect x="282.537" y="151.402" style="fill:#E1E6E9;" width="149.854" height="18.732"/>
	<rect x="282.537" y="208.384" style="fill:#E1E6E9;" width="149.854" height="18.732"/>
	<rect x="282.537" y="265.366" style="fill:#E1E6E9;" width="149.854" height="18.732"/>
	<rect x="282.537" y="322.373" style="fill:#E1E6E9;" width="149.854" height="18.732"/>
	<rect x="282.537" y="379.317" style="fill:#E1E6E9;" width="149.854" height="18.732"/>
	<rect x="35.902" y="265.366" style="fill:#E1E6E9;" width="149.854" height="18.732"/>
	<rect x="35.902" y="322.373" style="fill:#E1E6E9;" width="149.854" height="18.732"/>
	<rect x="35.902" y="379.317" style="fill:#E1E6E9;" width="149.854" height="18.732"/>
</g>
<rect x="35.902" y="151.402" style="fill:#27A2DB;" width="149.854" height="75.739"/>
<g>
</g>
<g>
</g>
<g>
</g>
<g>
</g>
<g>
</g>
<g>
</g>
<g>
</g>
<g>
</g>
<g>
</g>
<g>
</g>
<g>
</g>
<g>
</g>
<g>
</g>
<g>
</g>
<g>
</g>
</svg>
